<svg width="12" height="10" viewBox="0 0 12 10" fill="none" xmlns="http://www.w3.org/2000/svg">
<path d="M0.244769 0.209802C0.322162 0.143298 0.414101 0.0905335 0.515321 0.0545322C0.616541 0.0185308 0.725053 0 0.834641 0C0.944229 0 1.05274 0.0185308 1.15396 0.0545322C1.25518 0.0905335 1.34712 0.143298 1.42451 0.209802L5.83355 3.99041L10.2426 0.209802C10.3201 0.143405 10.412 0.0907363 10.5132 0.0548025C10.6144 0.0188688 10.7229 0.000373895 10.8325 0.000373895C10.942 0.000373895 11.0505 0.0188688 11.1517 0.0548025C11.2529 0.0907363 11.3449 0.143405 11.4223 0.209802C11.4998 0.276199 11.5612 0.355023 11.6032 0.441775C11.6451 0.528527 11.6667 0.621507 11.6667 0.715406C11.6667 0.809306 11.6451 0.902286 11.6032 0.989038C11.5612 1.07579 11.4998 1.15461 11.4223 1.22101L7.01163 5.00019L11.4223 8.77936C11.4998 8.84576 11.5612 8.92459 11.6032 9.01134C11.6451 9.09809 11.6667 9.19107 11.6667 9.28497C11.6667 9.37887 11.6451 9.47185 11.6032 9.5586C11.5612 9.64535 11.4998 9.72418 11.4223 9.79057C11.3449 9.85697 11.2529 9.90964 11.1517 9.94557C11.0505 9.98151 10.942 10 10.8325 10C10.7229 10 10.6144 9.98151 10.5132 9.94557C10.412 9.90964 10.3201 9.85697 10.2426 9.79057L5.83355 6.00997L1.42451 9.79057C1.34705 9.85697 1.25509 9.90964 1.15388 9.94557C1.05267 9.98151 0.94419 10 0.834641 10C0.725092 10 0.616615 9.98151 0.515404 9.94557C0.414194 9.90964 0.322232 9.85697 0.244769 9.79057C0.167306 9.72418 0.105859 9.64535 0.0639363 9.5586C0.0220136 9.47185 0.000436211 9.37887 0.000436211 9.28497C0.000436211 9.19107 0.0220136 9.09809 0.0639363 9.01134C0.105859 8.92459 0.167306 8.84576 0.244769 8.77936L4.65548 5.00019L0.244769 1.22101C0.167181 1.15467 0.105622 1.07587 0.0636209 0.989109C0.0216193 0.902349 0 0.809339 0 0.715406C0 0.621474 0.0216193 0.528463 0.0636209 0.441704C0.105622 0.354944 0.167181 0.276139 0.244769 0.209802Z" fill="#ABA5A5"/>
</svg>
