<svg width="54" height="51" viewBox="0 0 54 51" fill="none" xmlns="http://www.w3.org/2000/svg">
<mask id="mask0_509_798" style="mask-type:alpha" maskUnits="userSpaceOnUse" x="0" y="0" width="54" height="51">
<rect width="54" height="51" fill="#D9D9D9"/>
</mask>
<g mask="url(#mask0_509_798)">
<path d="M14.375 42.5C10.9625 42.5 8.04688 41.3844 5.62813 39.1531C3.20938 36.9219 2 34.1948 2 30.9719C2 28.2094 2.88125 25.7479 4.64375 23.5875C6.40625 21.4271 8.7125 20.0458 11.5625 19.4438C12.5 16.1854 14.375 13.5469 17.1875 11.5281C20 9.50938 23.1875 8.5 26.75 8.5C31.1375 8.5 34.8594 9.94323 37.9156 12.8297C40.9719 15.7161 42.5 19.2312 42.5 23.375C45.0875 23.6583 47.2344 24.712 48.9406 26.5359C50.6469 28.3599 51.5 30.4937 51.5 32.9375C51.5 35.5938 50.5156 37.8516 48.5469 39.7109C46.5781 41.5703 44.1875 42.5 41.375 42.5H29C27.7625 42.5 26.7031 42.0839 25.8219 41.2516C24.9406 40.4193 24.5 39.4188 24.5 38.25V27.3063L20.9 30.6L17.75 27.625L26.75 19.125L35.75 27.625L32.6 30.6L29 27.3063V38.25H41.375C42.95 38.25 44.2812 37.7365 45.3687 36.7094C46.4562 35.6823 47 34.425 47 32.9375C47 31.45 46.4562 30.1927 45.3687 29.1656C44.2812 28.1385 42.95 27.625 41.375 27.625H38V23.375C38 20.4354 36.9031 17.9297 34.7094 15.8578C32.5156 13.7859 29.8625 12.75 26.75 12.75C23.6375 12.75 20.9844 13.7859 18.7906 15.8578C16.5969 17.9297 15.5 20.4354 15.5 23.375H14.375C12.2 23.375 10.3438 24.101 8.80625 25.5531C7.26875 27.0052 6.5 28.7583 6.5 30.8125C6.5 32.8667 7.26875 34.6198 8.80625 36.0719C10.3438 37.524 12.2 38.25 14.375 38.25H20V42.5H14.375Z" fill="#1C1B1F"/>
</g>
</svg>
