<svg width="12" height="12" viewBox="0 0 12 12" fill="none" xmlns="http://www.w3.org/2000/svg">
<path opacity="0.3" d="M2.5 9.04001V9.50001H2.96L7.49 4.97001L7.03 4.51001L2.5 9.04001Z" fill="#ABA5A5"/>
<path d="M10.355 3.52C10.4014 3.47374 10.4381 3.4188 10.4632 3.35831C10.4883 3.29783 10.5012 3.23298 10.5012 3.1675C10.5012 3.10202 10.4883 3.03717 10.4632 2.97669C10.4381 2.9162 10.4014 2.86126 10.355 2.815L9.185 1.645C9.085 1.545 8.96 1.5 8.83 1.5C8.7 1.5 8.575 1.55 8.48 1.645L7.565 2.56L9.44 4.435L10.355 3.52ZM1.5 8.625V10.5H3.375L8.905 4.97L7.03 3.095L1.5 8.625ZM2.96 9.5H2.5V9.04L7.03 4.51L7.49 4.97L2.96 9.5Z" fill="#ABA5A5"/>
</svg>
