<svg xmlns="http://www.w3.org/2000/svg" width="20" height="30.769" viewBox="0 0 20 30.769"><defs><clipPath id="a"><rect width="20" height="30.769" fill="none" stroke="#606260" stroke-width="1"/></clipPath></defs><g opacity="0.596"><g clip-path="url(#a)"><path d="M4.3,17.839v2.914a2.532,2.532,0,0,0,2.532,2.532h5.063a2.532,2.532,0,0,0,2.532-2.532V17.839a2.489,2.489,0,0,1,.832-1.866A8.861,8.861,0,1,0,.5,9.361a8.807,8.807,0,0,0,2.982,6.628A2.463,2.463,0,0,1,4.3,17.839Z" transform="translate(0.133 0.133)" fill="none" stroke="#606260" stroke-linecap="round" stroke-linejoin="round" stroke-width="1"/><path d="M8.753,24.829H7.84a2.532,2.532,0,0,1-2.482-2.035L4.5,18.5h7.595l-.859,4.294A2.532,2.532,0,0,1,8.753,24.829Z" transform="translate(1.196 4.917)" fill="none" stroke="#606260" stroke-linecap="round" stroke-linejoin="round" stroke-width="1"/><line y2="10.126" transform="translate(9.493 13.291)" fill="none" stroke="#606260" stroke-linecap="round" stroke-linejoin="round" stroke-width="1"/><line x1="3.797" y2="3.797" transform="translate(9.493 9.493)" fill="none" stroke="#606260" stroke-linecap="round" stroke-linejoin="round" stroke-width="1"/><line x2="3.797" y2="3.797" transform="translate(5.696 9.493)" fill="none" stroke="#606260" stroke-linecap="round" stroke-linejoin="round" stroke-width="1"/></g></g></svg>